<?xml version="1.0" encoding="UTF-8" standalone="no"?>
<!-- Created with Inkscape (http://www.inkscape.org/) -->

<svg
   version="1.1"
   id="svg1"
   width="1051.761"
   height="189.47354"
   viewBox="0 0 1051.761 189.47354"
   sodipodi:docname="logo-light.svg"
   inkscape:version="1.3 (0e150ed6c4, 2023-07-21)"
   xmlns:inkscape="http://www.inkscape.org/namespaces/inkscape"
   xmlns:sodipodi="http://sodipodi.sourceforge.net/DTD/sodipodi-0.dtd"
   xmlns="http://www.w3.org/2000/svg"
   xmlns:svg="http://www.w3.org/2000/svg">
  <defs
     id="defs1" />
  <sodipodi:namedview
     id="namedview1"
     pagecolor="#ffffff"
     bordercolor="#000000"
     borderopacity="0.25"
     inkscape:showpageshadow="2"
     inkscape:pageopacity="0.0"
     inkscape:pagecheckerboard="0"
     inkscape:deskcolor="#d1d1d1"
     inkscape:zoom="0.39697266"
     inkscape:cx="275.83764"
     inkscape:cy="381.63838"
     inkscape:window-width="2560"
     inkscape:window-height="1009"
     inkscape:window-x="1912"
     inkscape:window-y="-8"
     inkscape:window-maximized="1"
     inkscape:current-layer="g1" />
  <g
     inkscape:groupmode="layer"
     inkscape:label="Image"
     id="g1"
     transform="translate(-31.165764,-769.93165)">
    <g
       id="g10"
       inkscape:export-filename="threeforged-logo.svg"
       inkscape:export-xdpi="96"
       inkscape:export-ydpi="96"
       transform="translate(-22.671587,221.67774)"
       style="fill:#000000;fill-opacity:1">
      <path
         d="m 309.30319,692.08179 v -80.15926 h -27.20637 v -17.65096 h 75.24884 v 17.65096 h -27.33908 v 80.15926 z m 56.98842,0 v -97.81022 h 20.43796 v 37.55806 l 10.08626,-9.15727 h 24.41938 l 14.73126,14.86397 v 54.54546 h -20.43796 v -50.96218 l -5.04313,-5.17585 h -10.61712 l -13.13869,12.07698 v 44.06105 z m 85.65479,0 v -69.40943 h 20.43795 v 11.54612 l 12.07698,-11.4134 h 14.73125 v 19.11081 h -17.78367 l -9.02456,8.62641 v 41.53949 z m 67.87112,0 -14.73125,-14.73126 v -39.8142 l 14.73125,-14.73125 h 35.30193 l 14.86397,14.73125 v 26.01195 h -44.4592 v 7.96284 l 5.30856,5.30856 37.95621,-0.13272 v 15.39483 z m 5.57399,-41.93763 h 25.21566 v -9.02455 l -5.30856,-5.30856 -14.46583,0.13271 -5.44127,5.17585 z m 73.3123,41.93763 -14.73125,-14.73126 v -39.8142 l 14.73125,-14.73125 h 35.30193 l 14.86397,14.73125 v 26.01195 h -44.45919 v 7.96284 l 5.30856,5.30856 37.9562,-0.13272 v 15.39483 z m 5.57399,-41.93763 h 25.21566 v -9.02455 l -5.30856,-5.30856 -14.46582,0.13271 -5.44128,5.17585 z m 60.83719,41.93763 v -97.81022 h 69.40942 v 17.65096 h -48.70604 v 23.09224 h 42.73391 v 16.98739 h -42.73391 v 40.07963 z m 84.59291,0 -14.73125,-14.73126 v -39.8142 l 14.73125,-14.73125 h 38.88521 l 14.86396,14.73125 v 39.8142 l -14.86396,14.73126 z m 10.88255,-13.13869 h 17.12011 l 5.30856,-5.30856 -0.13272,-32.51493 -5.17584,-5.30856 -17.12011,0.13271 -5.30856,5.17585 0.13271,32.51493 z m 58.05021,13.13869 v -69.40943 h 20.43795 v 11.54612 l 12.07698,-11.4134 h 14.73125 v 19.11081 h -17.78367 l -9.02456,8.62641 v 41.53949 z m 58.71384,24.81752 v -14.99669 h 39.01792 l 5.30856,-5.17584 v -14.2004 l -10.3517,9.55541 h -24.81751 l -14.73126,-14.73126 v -39.8142 l 14.73126,-14.86397 h 24.81751 l 10.3517,9.68813 v -9.55541 h 19.64167 v 79.23026 l -14.73125,14.86397 z m 31.05508,-38.08892 13.2714,-12.47512 v -17.91639 l -13.13869,-12.3424 -12.20969,-0.13272 -4.51227,4.77771 v 33.44393 l 4.51227,4.64499 z m 62.96065,13.2714 -14.73126,-14.73126 v -39.8142 l 14.73126,-14.73125 h 35.30197 l 14.8639,14.73125 v 26.01195 h -44.45917 v 7.96284 l 5.30856,5.30856 37.95621,-0.13272 v 15.39483 z m 5.57398,-41.93763 h 25.21569 v -9.02455 l -5.30859,-5.30856 -14.46582,0.13271 -5.44128,5.17585 z m 73.31229,41.93763 -14.7312,-14.73126 v -39.8142 l 14.7312,-14.86397 h 24.8175 l 10.0863,9.4227 v -37.82349 h 20.438 v 97.81022 h -20.438 v -9.28998 l -10.0863,9.28998 z m 21.8978,-13.2714 13.006,-12.20969 v -18.44725 l -12.8733,-12.07697 -12.2096,-0.13272 -4.5123,4.77771 v 33.44393 l 4.5123,4.64499 z"
         id="path9"
         style="font-weight:600;font-size:132.714px;font-family:Tomorrow;-inkscape-font-specification:'Tomorrow, Semi-Bold';letter-spacing:-1.67116px;fill:#000000;fill-opacity:1;stroke-width:31.5809"
         aria-label="ThreeForged" />
      <path
         id="path10"
         style="fill:#000000;fill-opacity:1;stroke-width:0.276572"
         d="m 152.98047,548.25391 c -14.25312,0 -15.41594,0.0343 -16.26172,0.49609 -0.50096,0.27352 -1.03558,0.77248 -1.1875,1.10742 -0.15192,0.33494 -1.29637,4.51179 -2.54492,9.2832 l -2.27149,8.67579 -4.14843,1.45312 c -5.00472,1.75271 -7.7175,2.91589 -12.33594,5.29297 l -3.5,1.80273 -6.9043,-4.30664 c -7.25804,-4.5261 -7.822753,-4.76059 -9.423826,-3.91015 -0.728761,0.3871 -17.62398,17.23969 -19.367188,19.31836 -1.341305,1.59942 -1.215399,2.46186 0.751953,5.11523 1.140811,1.53861 1.901961,2.2943 2.53125,2.51367 0.623091,0.2172 5.056254,0.3125 14.423829,0.3125 15.409962,0 13.725682,0.26108 17.783202,-2.75 10.05461,-7.46153 20.90699,-11.95432 33.18945,-13.74023 3.99366,-0.58069 13.31967,-0.65989 17.28516,-0.14649 8.08837,1.04719 15.35147,3.24029 22.54102,6.80664 7.1042,3.52402 12.01292,6.91044 17.25781,11.9043 10.08611,9.6034 16.85784,22.5668 19.02344,36.42188 0.75648,4.83986 0.68212,15.00738 -0.14258,19.44531 -2.39077,12.86536 -8.02728,23.75777 -16.93164,32.7207 -10.02629,10.09226 -23.84577,17.1054 -38.29102,19.43164 -5.19872,0.83718 -15.18042,1.03812 -20.60351,0.41407 -8.31555,-0.95692 -16.40894,-3.36075 -23.75586,-7.05469 l -2.23047,-1.1211 h -11.89844 c -6.544291,0 -11.898438,-0.0626 -11.898438,-0.13867 0,-0.0761 1.640664,-2.16098 3.646485,-4.63281 2.005818,-2.47186 4.071133,-5.01815 4.589843,-5.66016 l 0.94336,-1.16797 -1.28125,-1.35351 c -4.774784,-5.04309 -9.775012,-12.66978 -12,-18.30469 -3.206955,-8.12179 -4.306641,-14.01886 -4.306641,-23.08789 0,-6.44032 0.390821,-9.80063 1.78125,-15.30078 0.449084,-1.77645 0.818084,-3.26891 0.81836,-3.31641 4.1e-4,-0.0476 -3.141535,-0.0436 -6.982422,0.01 l -6.984375,0.0977 -5.808594,1.44335 c -3.194402,0.79361 -6.927846,1.70347 -8.296875,2.02344 -5.274264,1.23272 -5.387394,1.27999 -5.888672,2.40235 -0.402491,0.90118 -0.45799,2.4805 -0.46289,13.19336 -0.0061,13.40876 0.01026,13.54405 1.707031,14.17773 0.425488,0.15889 4.007918,1.11838 7.96289,2.13281 3.954974,1.01444 7.741668,1.99309 8.414063,2.17383 0.921354,0.2477 1.271251,0.49876 1.421875,1.01758 2.00214,6.89609 3.916929,11.9142 6.480469,16.99023 0.989943,1.9602 1.800781,3.63667 1.800781,3.72657 0,0.0899 -1.864831,2.77735 -4.142578,5.9707 -2.291924,3.21321 -4.216477,6.19301 -4.310547,6.67187 -0.105957,0.53937 -0.01313,1.16315 0.246094,1.65821 0.228716,0.43679 4.581985,5.03175 9.673828,10.21093 9.748634,9.91587 10.577076,10.59903 12.4375,10.25 0.517545,-0.0971 4.090826,-1.97833 7.941403,-4.18164 l 7.00196,-4.00781 2.09961,1.21094 c 4.86517,2.7998 9.07508,4.67004 14.67187,6.51953 1.89316,0.62558 3.4832,1.17656 3.5332,1.22656 0.12343,0.12343 0.86513,2.8534 2.56836,9.43555 0.78724,3.04229 1.59766,5.92566 1.79883,6.4082 0.63813,1.53071 1.45391,1.83709 5.49219,2.05664 5.28927,0.28758 26.93069,0.064 28.13476,-0.29101 0.54763,-0.16146 1.21548,-0.53684 1.48438,-0.83399 0.28508,-0.31498 1.22191,-3.34249 2.24609,-7.25976 2.70125,-10.33177 2.36433,-9.50074 4.0625,-10.05078 4.96654,-1.60868 12.26607,-4.84804 16.58789,-7.36133 l 1.86914,-1.08594 4.07813,2.33203 c 5.7395,3.28114 10.2886,5.63099 11.30859,5.8418 0.5316,0.10988 1.23223,0.0257 1.79883,-0.21875 1.12993,-0.48749 20.27468,-19.67411 20.55664,-20.60156 0.1074,-0.35324 0.11679,-0.95434 0.0215,-1.33399 -0.0953,-0.37965 -2.08977,-3.36021 -4.43164,-6.625 l -4.25782,-5.93554 1.09961,-1.90821 c 2.24654,-3.89653 4.75,-9.96915 6.73438,-16.33984 l 0.99219,-3.18945 2,-0.4961 c 5.59756,-1.39207 14.82437,-3.87222 15.5957,-4.1914 0.48213,-0.19949 1.02952,-0.64595 1.21484,-0.99219 0.65534,-1.22452 0.95442,-20.90323 0.38477,-25.3086 -0.26488,-2.04849 -0.5948,-2.1963 -9.875,-4.43554 -4.60105,-1.1102 -8.57854,-2.02139 -8.83985,-2.02539 -0.35565,-0.005 -0.65949,-0.61623 -1.20507,-2.42774 -1.11119,-3.68955 -4.11847,-11.12261 -6.10743,-15.0918 -1.20293,-2.40056 -1.69768,-3.65971 -1.51953,-3.87695 1.08784,-1.32658 8.0625,-13.14506 8.0625,-13.66211 0,-0.35982 -0.17783,-0.98963 -0.39453,-1.40039 -0.2167,-0.41076 -4.97646,-5.30676 -10.57812,-10.8789 -10.9197,-10.86216 -10.88201,-10.83074 -12.80664,-10.02149 -0.46161,0.19409 -3.50836,2.0323 -6.77149,4.08399 -3.26313,2.05168 -6.17685,3.86017 -6.47461,4.01953 -0.44338,0.23729 -1.15887,-0.0324 -3.95312,-1.48633 -4.5962,-2.3916 -7.33756,-3.57298 -12.26172,-5.28516 l -4.14844,-1.4414 -2.36523,-8.96094 c -1.3011,-4.92752 -2.46058,-9.11179 -2.57618,-9.29883 -0.1156,-0.18705 -0.60706,-0.55715 -1.09179,-0.82226 -0.80804,-0.44193 -2.15705,-0.48047 -16.23047,-0.48047 z m -23.16211,52.11328 c -62.976552,10e-4 -66.876556,0.0292 -67.205079,0.47851 -0.191816,0.26233 -0.34821,0.60846 -0.347656,0.76953 0.0024,0.67677 1.304488,2.24265 6.115234,7.35352 2.796438,2.9709 5.969003,6.36699 7.050782,7.54687 3.327348,3.6291 -2.456508,3.23047 46.937499,3.23047 h 42.83984 l -2.48632,2.69727 c -1.36812,1.48312 -4.08978,4.34831 -6.04688,6.36719 l -3.55859,3.66992 -12.47266,-0.006 -12.47461,-0.006 -0.93945,0.63281 c -1.04088,0.70034 -16.31808,17.33021 -16.87305,18.36719 -0.29618,0.55342 -0.27648,0.72542 0.12696,1.12891 0.4419,0.44196 2.47258,0.48679 28.52343,0.61523 l 28.04883,0.13672 -7.24609,8.04101 c -10.41277,11.55427 -11.04632,12.22144 -11.90235,12.54688 -0.50454,0.19183 -5.25888,0.29869 -13.68359,0.30469 -9.59741,0.007 -13.06751,0.096 -13.51563,0.3457 -0.33158,0.18475 -1.32507,1.14407 -2.20703,2.13281 -0.88196,0.98875 -3.97124,4.41107 -6.86523,7.60547 -2.89399,3.1944 -6.11517,6.77228 -7.16016,7.95117 l -1.90039,2.14454 h 29.77344 c 24.69632,-10e-6 29.93142,-0.0661 30.68945,-0.38282 0.55345,-0.23127 1.99885,-1.62114 3.66602,-3.52539 2.20319,-2.51653 19.77434,-23.10737 23.88867,-27.99414 0.53205,-0.63192 2.89778,-3.38889 5.25781,-6.12695 5.81452,-6.74592 5.52735,-6.33515 5.52735,-7.9375 0,-0.75006 -0.14026,-1.63651 -0.3125,-1.96875 -0.37645,-0.72622 -7.61202,-8.11487 -8.39844,-8.57617 -0.3784,-0.22197 -3.40257,-0.36829 -9.57227,-0.46289 l -9.01953,-0.13868 4.45703,-4.99414 c 9.13349,-10.23816 21.07808,-23.74393 21.94727,-24.81445 1.36455,-1.68062 1.23367,-2.32285 -0.94727,-4.63477 -1.01576,-1.07675 -2.07535,-2.07963 -2.35351,-2.22851 -0.32586,-0.17435 -24.28727,-0.27036 -67.36133,-0.26953 z" />
    </g>
  </g>
</svg>
